<svg xmlns:xlink="http://www.w3.org/1999/xlink" version="1.1" class="highcharts-root" style="font-family:&quot;lucida grande&quot;, &quot;lucida sans unicode&quot;, arial, helvetica, sans-serif;font-size:12px;" xmlns="http://www.w3.org/2000/svg" width="600" height="400"><desc>Created with Highstock 5.0.7</desc><defs><clipPath id="highcharts-sd4ofvd-7"><rect x="0" y="0" width="521" height="264" fill="none"></rect></clipPath><clipPath id="highcharts-sd4ofvd-8"><rect x="0" y="0" width="521" height="264" fill="none"></rect></clipPath></defs><rect fill="#ffffff" class="highcharts-background" x="0" y="0" width="600" height="400" rx="0" ry="0"></rect><rect fill="none" class="highcharts-plot-background" x="69" y="45" width="521" height="264"></rect><g class="highcharts-grid highcharts-xaxis-grid "><path fill="none" class="highcharts-grid-line" d="M 105.5 45 L 105.5 309" opacity="1"></path><path fill="none" class="highcharts-grid-line" d="M 209.5 45 L 209.5 309" opacity="1"></path><path fill="none" class="highcharts-grid-line" d="M 313.5 45 L 313.5 309" opacity="1"></path><path fill="none" class="highcharts-grid-line" d="M 417.5 45 L 417.5 309" opacity="1"></path><path fill="none" class="highcharts-grid-line" d="M 521.5 45 L 521.5 309" opacity="1"></path></g><g class="highcharts-grid highcharts-yaxis-grid "><path fill="none" stroke="#e6e6e6" stroke-width="1" class="highcharts-grid-line" d="M 69 177.5 L 590 177.5" opacity="1"></path></g><rect fill="none" class="highcharts-plot-border" x="69" y="45" width="521" height="264"></rect><g class="highcharts-axis highcharts-xaxis "><path fill="none" class="highcharts-tick" stroke="#ccd6eb" stroke-width="1" d="M 105.5 309 L 105.5 319" opacity="1"></path><path fill="none" class="highcharts-tick" stroke="#ccd6eb" stroke-width="1" d="M 209.5 309 L 209.5 319" opacity="1"></path><path fill="none" class="highcharts-tick" stroke="#ccd6eb" stroke-width="1" d="M 313.5 309 L 313.5 319" opacity="1"></path><path fill="none" class="highcharts-tick" stroke="#ccd6eb" stroke-width="1" d="M 417.5 309 L 417.5 319" opacity="1"></path><path fill="none" class="highcharts-tick" stroke="#ccd6eb" stroke-width="1" d="M 521.5 309 L 521.5 319" opacity="1"></path><text x="329.5" text-anchor="middle" transform="translate(0,0)" class="highcharts-axis-title" style="color:#666666;fill:#666666;" y="346"><tspan style="font-weight:bold">Date</tspan></text><path fill="none" class="highcharts-axis-line" stroke="#ccd6eb" stroke-width="1" d="M 69 309.5 L 590 309.5"></path></g><g class="highcharts-axis highcharts-yaxis "><text x="23.765625" text-anchor="middle" transform="translate(0,0) rotate(270 23.765625 177)" class="highcharts-axis-title" style="color:#666666;fill:#666666;" y="177"><tspan style="font-weight:bold">Displacement (cm)</tspan></text><path fill="none" class="highcharts-axis-line" d="M 69 45 L 69 309"></path></g><g class="highcharts-series-group"><g class="highcharts-series highcharts-series-0 highcharts-line-series highcharts-color-0 " transform="translate(69,45) scale(1 1)" clip-path="url(#highcharts-sd4ofvd-8)"><path fill="none" d="M 315.56063756064 132 L 320.10990990991 132" class="highcharts-graph" stroke="#7cb5ec" stroke-width="2" stroke-dasharray="6,2"></path></g><g class="highcharts-markers highcharts-series-0 highcharts-line-series highcharts-color-0 " transform="translate(69,45) scale(1 1)" clip-path="none"><path fill="#7cb5ec" d="M 318 132 A 3 3 0 1 1 317.9999985000001 131.9970000005 Z" class="highcharts-point highcharts-color-0"></path><path fill="#7cb5ec" d="M 323 132 A 3 3 0 1 1 322.9999985000001 131.9970000005 Z" class="highcharts-point highcharts-color-0"></path></g></g><text x="300" text-anchor="middle" class="highcharts-title" style="color:#333333;font-size:18px;fill:#333333;" y="24"><tspan style="font-weight:bold">Surficial Data of AGB as of 11/11/2017 07:30</tspan></text><g class="highcharts-legend" transform="translate(276,360)"><rect fill="none" class="highcharts-legend-box" rx="0" ry="0" x="0" y="0" width="48" height="25" visibility="visible"></rect><g><g><g class="highcharts-legend-item highcharts-line-series highcharts-color-0 highcharts-series-0" transform="translate(8,3)"><path fill="none" d="M 0 11 L 16 11" class="highcharts-graph" stroke-dasharray="6,2" stroke="#7cb5ec" stroke-width="2"></path><path fill="#7cb5ec" d="M 11 11 A 3 3 0 1 1 10.999998500000125 10.997000000499998 Z" class="highcharts-point"></path><text x="21" style="color:#333333;font-size:12px;font-weight:bold;cursor:pointer;fill:#333333;" text-anchor="start" y="15">A</text></g></g></g></g><g class="highcharts-axis-labels highcharts-xaxis-labels "><text x="105.82744282744284" style="color:#666666;cursor:default;font-size:11px;fill:#666666;" text-anchor="middle" transform="translate(0,0)" y="328" opacity="1"><tspan>2. Nov</tspan></text><text x="209.8108108108108" style="color:#666666;cursor:default;font-size:11px;fill:#666666;" text-anchor="middle" transform="translate(0,0)" y="328" opacity="1"><tspan>4. Nov</tspan></text><text x="313.79417879417883" style="color:#666666;cursor:default;font-size:11px;fill:#666666;" text-anchor="middle" transform="translate(0,0)" y="328" opacity="1"><tspan>6. Nov</tspan></text><text x="417.7775467775468" style="color:#666666;cursor:default;font-size:11px;fill:#666666;" text-anchor="middle" transform="translate(0,0)" y="328" opacity="1"><tspan>8. Nov</tspan></text><text x="521.7609147609148" style="color:#666666;cursor:default;font-size:11px;fill:#666666;" text-anchor="middle" transform="translate(0,0)" y="328" opacity="1"><tspan>10. Nov</tspan></text></g><g class="highcharts-axis-labels highcharts-yaxis-labels "><text x="54" style="color:#666666;cursor:default;font-size:11px;fill:#666666;" text-anchor="end" transform="translate(0,0)" y="182" opacity="1"><tspan>278</tspan></text></g></svg>